<?xml version="1.0" encoding="UTF-8"?>
<!DOCTYPE svg PUBLIC "-//W3C//DTD SVG 1.1//EN" "http://www.w3.org/Graphics/SVG/1.1/DTD/svg11.dtd">
<svg xmlns="http://www.w3.org/2000/svg" version="1.1" width="279px" height="171px" style="shape-rendering:geometricPrecision; text-rendering:geometricPrecision; image-rendering:optimizeQuality; fill-rule:evenodd; clip-rule:evenodd" xmlns:xlink="http://www.w3.org/1999/xlink">
<g><path style="opacity:1" fill="#fdfefd" d="M -0.5,-0.5 C 92.5,-0.5 185.5,-0.5 278.5,-0.5C 278.5,56.5 278.5,113.5 278.5,170.5C 185.5,170.5 92.5,170.5 -0.5,170.5C -0.5,113.5 -0.5,56.5 -0.5,-0.5 Z"/></g>
<g><path style="opacity:1" fill="#ff924f" d="M 232.5,15.5 C 253.655,15.1539 263.155,25.4872 261,46.5C 257.066,62.3886 249.566,76.0553 238.5,87.5C 236.617,87.1243 235.117,86.1243 234,84.5C 225.891,73.6157 219.891,61.6157 216,48.5C 212.138,32.5942 217.638,21.5942 232.5,15.5 Z"/></g>
<g><path style="opacity:1" fill="#020202" d="M 129.5,77.5 C 129.44,76.9569 129.107,76.6236 128.5,76.5C 127.508,80.7828 127.174,85.1161 127.5,89.5C 123.167,89.5 118.833,89.5 114.5,89.5C 114.5,67.1667 114.5,44.8333 114.5,22.5C 119.412,21.9743 124.078,22.6409 128.5,24.5C 137.187,19.0137 143.354,21.0137 147,30.5C 147.947,44.5691 147.614,58.5691 146,72.5C 144.833,75 143,76.8333 140.5,78C 136.745,78.7554 133.078,78.5887 129.5,77.5 Z"/></g>
<g><path style="opacity:1" fill="#000000" d="M 171.5,21.5 C 172.833,21.5 174.167,21.5 175.5,21.5C 175.5,25.1667 175.5,28.8333 175.5,32.5C 172.333,32.4001 169.333,33.0668 166.5,34.5C 165.501,49.1515 165.167,63.8182 165.5,78.5C 161.167,78.5 156.833,78.5 152.5,78.5C 152.5,59.8333 152.5,41.1667 152.5,22.5C 156.833,22.5 161.167,22.5 165.5,22.5C 165.34,24.1992 165.506,25.8659 166,27.5C 167.36,24.9774 169.193,22.9774 171.5,21.5 Z"/></g>
<g><path style="opacity:1" fill="#090909" d="M 190.5,21.5 C 201.292,20.1354 208.459,24.4687 212,34.5C 212.667,45.1667 212.667,55.8333 212,66.5C 211.004,72.1594 207.838,75.9927 202.5,78C 190.553,81.9211 182.72,78.0878 179,66.5C 178.333,55.5 178.333,44.5 179,33.5C 181.019,27.6498 184.852,23.6498 190.5,21.5 Z"/></g>
<g><path style="opacity:1" fill="#fefbf8" d="M 234.5,25.5 C 242.212,24.4587 247.712,27.4587 251,34.5C 252.147,46.6861 246.647,52.1861 234.5,51C 227.001,47.5006 224.167,41.6673 226,33.5C 228.074,29.9231 230.907,27.2565 234.5,25.5 Z"/></g>
<g><path style="opacity:1" fill="#e2e2e2" d="M 129.5,32.5 C 131.451,32.2267 132.951,32.8934 134,34.5C 134.667,44.8333 134.667,55.1667 134,65.5C 132.522,68.9931 130.522,69.3264 128,66.5C 127.333,55.8333 127.333,45.1667 128,34.5C 128.717,33.9558 129.217,33.2891 129.5,32.5 Z"/></g>
<g><path style="opacity:1" fill="#fcfcfc" d="M 193.5,32.5 C 195.144,32.2865 196.644,32.6198 198,33.5C 198.667,44.5 198.667,55.5 198,66.5C 196.688,68.6576 195.022,68.9909 193,67.5C 192.189,55.7574 192.356,44.0907 193.5,32.5 Z"/></g>
<g><path style="opacity:1" fill="#93f9fc" d="M 234.5,32.5 C 241.497,31.6662 244.664,34.6662 244,41.5C 240,45.5 236,45.5 232,41.5C 230.927,37.9003 231.76,34.9003 234.5,32.5 Z"/></g>
<g><path style="opacity:1" fill="#999999" d="M 129.5,77.5 C 128.833,81.5 128.167,85.5 127.5,89.5C 127.174,85.1161 127.508,80.7828 128.5,76.5C 129.107,76.6236 129.44,76.9569 129.5,77.5 Z"/></g>
<g><path style="opacity:1" fill="#91fbfe" d="M 84.5,83.5 C 94.1667,83.5 103.833,83.5 113.5,83.5C 113.5,87.8333 113.5,92.1667 113.5,96.5C 110.833,96.5 108.167,96.5 105.5,96.5C 105.5,114.167 105.5,131.833 105.5,149.5C 100.833,149.5 96.1667,149.5 91.5,149.5C 91.5,131.833 91.5,114.167 91.5,96.5C 89.1667,96.5 86.8333,96.5 84.5,96.5C 84.5,92.1667 84.5,87.8333 84.5,83.5 Z"/></g>
<g><path style="opacity:1" fill="#8dfbfe" d="M 253.5,82.5 C 257.833,82.5 262.167,82.5 266.5,82.5C 266.5,104.833 266.5,127.167 266.5,149.5C 262.167,149.5 257.833,149.5 253.5,149.5C 253.5,127.167 253.5,104.833 253.5,82.5 Z"/></g>
<g><path style="opacity:1" fill="#ff9350" d="M 73.5,89.5 C 76.6802,89.1762 77.8469,90.5096 77,93.5C 74.0844,98.4199 70.4177,102.753 66,106.5C 65.9144,110.829 66.2478,115.163 67,119.5C 68.6269,117.688 70.1269,117.521 71.5,119C 69.9474,121.048 68.6141,123.215 67.5,125.5C 68.0639,127.819 68.5639,130.153 69,132.5C 70.1096,130.963 71.6096,130.297 73.5,130.5C 73.4312,133.084 72.2645,135.084 70,136.5C 70,140.5 70,144.5 70,148.5C 69,149.5 68,150.5 67,151.5C 63.8633,142.423 60.53,133.423 57,124.5C 54.668,121.209 51.8347,120.709 48.5,123C 44.0332,126.465 39.8666,130.298 36,134.5C 36.2913,139.144 36.2913,143.811 36,148.5C 35.5814,149.672 34.9147,150.672 34,151.5C 30.8333,142.333 24.6667,136.167 15.5,133C 16.1667,132.333 16.8333,131.667 17.5,131C 22.5246,130.672 27.5246,130.672 32.5,131C 36.3333,127.167 40.1667,123.333 44,119.5C 45.1871,117.956 45.5205,116.289 45,114.5C 43.6397,112.895 42.1397,111.395 40.5,110C 32.2887,106.722 24.2887,103.222 16.5,99.5C 16.9767,98.5224 17.6433,97.6891 18.5,97C 22.5,97 26.5,97 30.5,97C 31.9158,94.7355 33.9158,93.5688 36.5,93.5C 36.7035,95.3904 36.0368,96.8904 34.5,98C 38.9583,100.56 42.6249,99.8937 45.5,96C 46.7932,95.51 48.1266,95.3433 49.5,95.5C 49.7035,97.3904 49.0368,98.8904 47.5,100C 51.7612,101.363 56.0946,101.696 60.5,101C 64.4333,96.5577 68.7666,92.7244 73.5,89.5 Z"/></g>
<g><path style="opacity:1" fill="#8ffbfe" d="M 135.5,92.5 C 136.833,92.5 138.167,92.5 139.5,92.5C 139.5,96.5 139.5,100.5 139.5,104.5C 136.552,104.223 133.719,104.556 131,105.5C 130.5,120.163 130.333,134.83 130.5,149.5C 125.833,149.5 121.167,149.5 116.5,149.5C 116.5,130.833 116.5,112.167 116.5,93.5C 121.167,93.5 125.833,93.5 130.5,93.5C 130.343,94.8734 130.51,96.2068 131,97.5C 132.193,95.5029 133.693,93.8362 135.5,92.5 Z"/></g>
<g><path style="opacity:1" fill="#90fbfe" d="M 152.5,92.5 C 158.892,91.7906 164.892,92.9573 170.5,96C 172.049,97.214 173.215,98.714 174,100.5C 175.455,116.763 175.955,133.096 175.5,149.5C 170.833,149.5 166.167,149.5 161.5,149.5C 161.66,147.801 161.494,146.134 161,144.5C 157.108,150.957 151.942,152.124 145.5,148C 141.39,140.182 140.557,132.015 143,123.5C 147.577,117.456 153.744,114.123 161.5,113.5C 161.665,110.482 161.498,107.482 161,104.5C 159.333,101.833 157.667,101.833 156,104.5C 155.506,106.134 155.34,107.801 155.5,109.5C 151.167,109.5 146.833,109.5 142.5,109.5C 141.52,101.106 144.854,95.4389 152.5,92.5 Z"/></g>
<g><path style="opacity:1" fill="#8ffbfe" d="M 178.5,93.5 C 183.167,93.5 187.833,93.5 192.5,93.5C 193.267,103.5 194.1,113.5 195,123.5C 195.84,113.773 197.007,104.106 198.5,94.5C 202.783,93.5078 207.116,93.1744 211.5,93.5C 208.833,112.167 206.167,130.834 203.5,149.5C 197.697,150.087 192.197,149.42 187,147.5C 184.057,129.506 181.223,111.506 178.5,93.5 Z"/></g>
<g><path style="opacity:1" fill="#8ffbff" d="M 226.5,92.5 C 234.077,91.3473 240.577,93.3473 246,98.5C 246.667,99.8333 247.333,101.167 248,102.5C 248.5,109.158 248.666,115.825 248.5,122.5C 241.833,122.5 235.167,122.5 228.5,122.5C 228.334,127.179 228.501,131.845 229,136.5C 229.879,139.346 231.546,140.013 234,138.5C 234.499,134.848 234.665,131.182 234.5,127.5C 239.167,127.5 243.833,127.5 248.5,127.5C 250.113,146.35 241.78,153.516 223.5,149C 219.51,147.01 217.01,143.843 216,139.5C 215.333,126.833 215.333,114.167 216,101.5C 218.489,97.1675 221.989,94.1675 226.5,92.5 Z"/></g>
<g><path style="opacity:1" fill="#f9feff" d="M 230.5,102.5 C 231.822,102.33 232.989,102.663 234,103.5C 234.499,107.486 234.666,111.486 234.5,115.5C 232.5,115.5 230.5,115.5 228.5,115.5C 227.975,110.86 228.642,106.527 230.5,102.5 Z"/></g>
<g><path style="opacity:1" fill="#f8feff" d="M 160.5,119.5 C 161.653,125.319 161.819,131.319 161,137.5C 159.333,140.167 157.667,140.167 156,137.5C 155.333,133.167 155.333,128.833 156,124.5C 157.025,122.313 158.525,120.646 160.5,119.5 Z"/></g>
</svg>
